<svg xmlns="http://www.w3.org/2000/svg" aria-hidden="true" style="position:absolute;width:0;height:0;overflow:hidden"><defs><symbol id="icon-antenna" viewBox="0 0 32 32"><path fill="#2e2f42" d="m30.773 22.098-8.443-8.505.937-4.615c.242.094.499.143.759.145h.032a2.16 2.16 0 1 0-2.029-1.42l-.005-.015-4.96.605L8.973.16A.53.53 0 0 0 8.597 0a.536.536 0 0 0-.373.155L6.711 1.659a.53.53 0 0 0 0 .754l.814.825C6.382 5.3 5.709 7.76 5.709 10.377c0 4.106 1.656 7.825 4.336 10.526l-.001-.001a.506.506 0 0 0 .146.098 2.986 2.986 0 0 0-.052.546v6.188h-6.4A2.669 2.669 0 0 0 1.071 30.4v1.067c0 .295.239.533.534.533h24.534a.535.535 0 0 0 .534-.534v-1.067a2.67 2.67 0 0 0-2.667-2.666h-6.4v-2.742a14.784 14.784 0 0 0 10.166-1.502l-.077.039.819.823a.534.534 0 0 0 .377.16.532.532 0 0 0 .373-.155l1.512-1.505a.535.535 0 0 0 0-.754zM23.28 6.233a1.067 1.067 0 1 1 .752 1.822h-.003a1.066 1.066 0 0 1-.746-1.822h-.002zm-1.256 3.505-.599 2.945-1.175-1.182 1.774-1.764zm-.605-.902-1.92 1.909-1.485-1.493 3.405-.415zM24.004 28.8a1.6 1.6 0 0 1 1.6 1.6v.534H2.138V30.4a1.6 1.6 0 0 1 1.6-1.6h20.267zm-7.466-2.134v1.067h-5.334v-1.067h5.334zM11.204 25.6v-4.053c0-1.294 1.197-2.346 2.666-2.346s2.667 1.053 2.667 2.346V25.6h-5.334zm6.4-1.696v-2.357c0-1.882-1.675-3.413-3.733-3.413h-.059c-1.353 0-2.54.707-3.213 1.771l-.009.016a13.816 13.816 0 0 1-3.811-9.549c0-2.314.567-4.496 1.569-6.414l-.036.077 18.602 18.709c-1.823.947-3.98 1.502-6.266 1.502-1.079 0-2.128-.124-3.136-.357l.093.018zm11.289-.683L7.836 2.041l.755-.752 7.935 7.98c.003 0 .006.007.009.009l13.114 13.191-.757.752z" style="fill:var(--color1, #2e2f42)"/><path fill="#4d5ae5" d="M13.876 20.267h-.007a1.6 1.6 0 0 0-.003 3.2h.007a1.6 1.6 0 0 0 .003-3.2zm.373 1.978a.534.534 0 0 1-.91-.379v-.002a.533.533 0 0 1 .53-.53.535.535 0 0 1 .374.912h.005z" style="fill:var(--color2, #4d5ae5)"/></symbol><symbol id="icon-astronaut" viewBox="0 0 32 32"><path fill="#4d5ae5" d="M31.974 4.524a.535.535 0 0 0-.427-.362h-.003l-1.911-.278-.855-1.731c-.179-.365-.776-.365-.956 0l-.855 1.731-1.91.278a.534.534 0 0 0-.296.909l1.383 1.348-.326 1.903a.533.533 0 0 0 .774.561l1.709-.899 1.709.899a.534.534 0 0 0 .773-.565v.003l-.326-1.903L31.84 5.07a.535.535 0 0 0 .134-.55l.001.004zm-2.463 1.327a.534.534 0 0 0-.153.472l.191 1.114-1-.526a.524.524 0 0 0-.499.001l.003-.001-1 .526.191-1.114a.53.53 0 0 0-.153-.472l-.81-.79 1.119-.162a.533.533 0 0 0 .401-.292l.5-1.013.501 1.013a.535.535 0 0 0 .402.292l1.119.162-.809.79zm-3.377 14.671h-1.067v1.067h1.067v-1.067zm0 2.133h-1.067v1.067h1.067v-1.067z" style="fill:var(--color2, #4d5ae5)"/><path fill="#4d5ae5" d="M27.2 21.589h-1.067v1.067H27.2v-1.067zm-2.133 0H24v1.067h1.067v-1.067zm-2.667 4.8h-1.067v1.067H22.4v-1.067zm0 2.134h-1.067v1.067H22.4v-1.067zm1.067-1.067H22.4v1.067h1.067v-1.067zM21.334 27.456h-1.067v1.067h1.067v-1.067zM16 24.256h-1.066v1.067H16v-1.067zm0 2.133h-1.066v1.067H16v-1.067zm1.067-1.066H16v1.067h1.067v-1.067zm-2.133 0h-1.067v1.067h1.067v-1.067zM5.867 6.122H4.801v1.066h1.066V6.122zm0 2.133H4.801v1.067h1.066V8.256zm1.066-1.066H5.867v1.067h1.066V7.189zm-2.133 0H3.733v1.067H4.8V7.189z" style="fill:var(--color2, #4d5ae5)"/><path fill="#2e2f42" d="M24.715 14.159a1.778 1.778 0 0 0-1.179-.704l-.009-.001a1.764 1.764 0 0 0-1.344.356l.004-.003-1.252.96-1.898 1.417-1.358-.541c2.421-1.086 4.114-3.508 4.114-6.32 0-3.823-3.122-6.933-6.961-6.933S7.87 5.5 7.87 9.323a6.86 6.86 0 0 0 1.12 3.758l-2.769-.024c-.008 0-.015.005-.024.005a.52.52 0 0 0-.155.03c-.013.005-.026.008-.038.014-.006.002-.013.003-.019.007L2.751 14.71l-1.893.911a.429.429 0 0 0-.064.036l.001-.001a1.78 1.78 0 0 0-.593 2.304l-.005-.01c.22.429.595.745 1.056.89a1.772 1.772 0 0 0 1.388-.133l-.009.005 1.388-.738 2.264-1.169 1.357-.008-5.442 5.415-.002.002-1.339 1.333c-.303.299-.49.714-.49 1.173v.005a1.668 1.668 0 0 0 1.669 1.663 1.67 1.67 0 0 0 1.18-.485l1.314-1.308 1.74-1.3.901.897L4.07 27.28c-.303.299-.49.714-.49 1.173v.005a1.669 1.669 0 0 0 1.67 1.664c.428 0 .855-.162 1.18-.485l3.482-3.466.001-.002 1.01-1-.004-.003c.007-.006.015-.009.022-.015l5.166-5.658 3.471.494a.522.522 0 0 0 .266-.035l-.004.001c.017-.006.033-.015.05-.023.019-.009.039-.015.057-.027l3.213-2.134c.012-.008.018-.02.029-.029.012-.01.029-.014.04-.025l1.272-1.192a1.777 1.777 0 0 0 .209-2.366l.003.005zM2.13 17.77a.714.714 0 0 1-.558.052.717.717 0 0 1-.215-1.258l.002-.001 1.314-.632.316.925.133.388-.993.527zm3.498-1.827-1.548.8-.255-.747-.183-.537 2.026-1-.04 1.483zm15.099-6.621a5.79 5.79 0 0 1-.599 2.559l-4.181-1.899a1.86 1.86 0 0 0-.782-1.384l-.006-.004 1.464-4.86c2.378.755 4.105 2.974 4.105 5.587zm-11.789 0c0-3.235 2.644-5.867 5.894-5.867.253 0 .5.022.745.053l-1.432 4.753c-.019 0-.037-.005-.057-.005h-.001a1.872 1.872 0 0 0-1.872 1.866 1.873 1.873 0 0 0 1.872 1.867h.001c.694 0 1.294-.383 1.618-.944l3.863 1.755a5.891 5.891 0 0 1-4.736 2.39c-3.25 0-5.895-2.633-5.895-5.867zm5.957.8c0 .441-.362.8-.806.8h-.002a.804.804 0 0 1-.804-.8c0-.441.361-.8.806-.8s.806.359.806.8zM2.465 25.146a.609.609 0 0 1-.855 0 .591.591 0 0 1 0-.844l.962-.959.851.848-.958.955zm3.213 3.734a.606.606 0 0 1-.855.001.591.591 0 0 1 0-.844l.963-.959.851.848-.96.955zm3.483-3.469-.002.001-1.765 1.76-.851-.848 1.763-1.756.002-.001c.04-.04.065-.088.09-.135.007-.014.02-.026.026-.04.017-.041.019-.085.025-.129.004-.024.014-.047.014-.073 0-.035-.012-.07-.02-.105-.007-.032-.007-.065-.018-.096a.511.511 0 0 0-.091-.137c-.01-.012-.014-.027-.025-.038h-.001l-.001-.002-1.607-1.6c-.017-.017-.039-.024-.058-.038a.491.491 0 0 0-.084-.056l-.003-.001a.477.477 0 0 0-.09-.032l-.003-.001a.502.502 0 0 0-.101-.02h-.022a.49.49 0 0 0-.077.006h.003a.59.59 0 0 0-.108.021l.004-.001a.502.502 0 0 0-.096.046l.002-.001c-.02.011-.043.015-.061.029l-1.774 1.324-.901-.897 2.399-2.386 4.36 4.289-.927.919zm6.818-7.017c-.015-.002-.03.004-.045.003l-.026-.001a.562.562 0 0 0-.092.008h.003a.5.5 0 0 0-.187.069l.002-.001a.554.554 0 0 0-.083.061c-.013.011-.028.017-.04.029l-4.698 5.146-4.328-4.257 2.833-2.818a.535.535 0 0 0-.378-.911h-.001l-2.219.013.027-1.607 3.104.027a6.928 6.928 0 0 0 4.978 2.101h.003c.438 0 .864-.045 1.279-.122.04.032.079.064.13.085l2.409.96.152.758.178.885-3.003-.427zm4.041.179-.314-1.558 1.447-1.08.947 1.257-2.08 1.381zm3.754-2.831-.838.785-.931-1.236.831-.637a.73.73 0 0 1 .543-.143.716.716 0 0 1 .395 1.231z" style="fill:var(--color1, #2e2f42)"/><path fill="#2e2f42" d="m13.602 18.544-2.143-2.134a.53.53 0 0 0-.752 0l-2.143 2.134a.533.533 0 0 0 0 .756l2.143 2.133a.53.53 0 0 0 .752 0l2.143-2.133a.532.532 0 0 0 0-.756zm-2.519 1.759-1.386-1.381 1.386-1.381 1.387 1.381-1.387 1.381zm6.081-15.232-.258 1.035c.071.018 1.738.452 1.738 2.149h1.067c0-2.017-1.666-2.966-2.546-3.185zm2.547 4.251h-1.067v1.067h1.067V9.322z" style="fill:var(--color1, #2e2f42)"/></symbol><symbol id="icon-client1" viewBox="0 0 32 32"><path fill="#8e8f99" d="m11.692 9.538 2.156 2.054-4.002-.002v9.966h10.462v-3.81l2.154 2.052V9.538H11.693zm8.521 7.967-6.114-5.825h6.114v5.825zm-1.898 2.594h-6.813v-6.703h.482v6.249h6.332v.454zm-5.455 3.305-.254-.522h-.21l.368.691v.403h.19v-.403l.368-.691h-.209l-.254.522zm.936-.523h.045l.413 1.094h-.198l-.089-.256h-.423l-.088.256h-.198l.412-1.094h.126zm-.2.689h.32l-.16-.464-.16.464zm1.322-.182a1.535 1.535 0 0 0-.019-.024l-.005-.007a.568.568 0 0 1-.064-.104l-.001-.003a.296.296 0 0 1 .012-.255.236.236 0 0 1 .099-.094l.001-.001a.33.33 0 0 1 .151-.034c.056 0 .104.011.144.034a.236.236 0 0 1 .107.304l.001-.002a.287.287 0 0 1-.052.078.59.59 0 0 1-.075.066l-.002.001-.076.055.217.255a.423.423 0 0 0 .047-.196v-.008h.156a.672.672 0 0 1-.016.151.464.464 0 0 1-.081.182l.001-.001.16.189h-.209l-.064-.075a.414.414 0 0 1-.109.061l-.003.001a.486.486 0 0 1-.166.028h-.004a.415.415 0 0 1-.189-.04.298.298 0 0 1-.122-.108l-.001-.001a.298.298 0 0 1-.043-.155v-.005c0-.045.009-.084.028-.117s.044-.066.076-.095a.883.883 0 0 1 .102-.08zm.089.11-.023.016a.267.267 0 0 0-.059.062l-.001.001a.18.18 0 0 0-.01.185v-.001a.162.162 0 0 0 .06.062h.001a.203.203 0 0 0 .093.023h.006a.272.272 0 0 0 .121-.028.381.381 0 0 0 .056-.035l-.001.001-.243-.286zm.043-.2.067-.045a.23.23 0 0 0 .067-.061v-.001a.132.132 0 0 0 .02-.072v-.005a.108.108 0 0 0-.109-.105h-.01a.111.111 0 0 0-.101.064v.001a.156.156 0 0 0 .005.135v-.001a.393.393 0 0 0 .047.074l.012.016zm1.914.321h-.188a.351.351 0 0 1-.035.123l.001-.002a.173.173 0 0 1-.075.074h-.001a.284.284 0 0 1-.118.026h-.012.001-.006a.238.238 0 0 1-.109-.027l.001.001a.213.213 0 0 1-.078-.074l-.001-.001a.345.345 0 0 1-.044-.112v-.002a.718.718 0 0 1-.014-.144v-.098c0-.058.005-.11.016-.155s.028-.084.049-.115a.205.205 0 0 1 .079-.07l.001-.001a.247.247 0 0 1 .107-.024h.006c.052 0 .095.009.128.027s.057.043.074.077a.345.345 0 0 1 .033.121h.188a.481.481 0 0 0-.063-.197l.001.002a.35.35 0 0 0-.138-.132l-.002-.001a.452.452 0 0 0-.207-.049h-.015.001c-.069 0-.13.012-.186.036s-.102.058-.141.105a.47.47 0 0 0-.089.159l-.001.003a.676.676 0 0 0-.031.213v.091c0 .078.01.15.03.213s.05.118.089.163a.397.397 0 0 0 .322.14c.088 0 .163-.016.225-.048s.109-.076.143-.132a.434.434 0 0 0 .06-.191zm1.043-.161v-.06a.695.695 0 0 0-.033-.222.474.474 0 0 0-.093-.168l.001.001a.404.404 0 0 0-.141-.105l-.003-.001c-.055-.025-.117-.037-.185-.037s-.129.012-.184.037c-.055.024-.103.059-.144.106s-.071.102-.093.168a.678.678 0 0 0-.033.212v.01-.001.06c0 .083.011.157.033.222s.054.12.095.168l-.001-.001a.42.42 0 0 0 .327.142c.068 0 .129-.012.185-.036s.103-.06.143-.106c.04-.046.071-.102.092-.167s.032-.14.032-.222zm-.188-.061v.062a.658.658 0 0 1-.018.162.355.355 0 0 1-.052.121l.001-.001a.224.224 0 0 1-.081.072l-.001.001a.247.247 0 0 1-.107.024h-.01a.245.245 0 0 1-.108-.025l.001.001a.244.244 0 0 1-.084-.072v-.001a.335.335 0 0 1-.052-.117v-.002a.62.62 0 0 1-.018-.154v-.071c0-.061.006-.115.018-.162s.029-.086.052-.118a.216.216 0 0 1 .082-.071l.001-.001a.234.234 0 0 1 .107-.025h.005c.042 0 .079.008.112.025s.061.04.083.072c.023.031.041.071.052.118s.018.101.018.162z" style="fill:var(--color3, #8e8f99)"/></symbol><symbol id="icon-client2" viewBox="0 0 32 32"><path fill="#8e8f99" d="M15.42 9.211h-.042a4.19 4.19 0 0 0-.194-.007h-.14c-.122 0-.247.003-.37.009l-.014-.001-.015.001h.001a8.667 8.667 0 0 0-3.288.848l.052-.023-.133.064v6.813l.311-.106c.273-.094.564-.178.866-.257a10.302 10.302 0 0 1 2.484-.331h.007v.895a8.855 8.855 0 0 0-.328.009h-.026a9.927 9.927 0 0 0-1.986.31l.069-.015a9.679 9.679 0 0 0-2.333.915l.05-.025V9.572a8.933 8.933 0 0 1 2.332-.96l.063-.014a8.937 8.937 0 0 1 2.255-.291h.133c.157.004.311.011.455.022a6.59 6.59 0 0 1 1.125.179v.881a6.632 6.632 0 0 0-1.067-.163l-.023-.001-.022-.002c-.076-.006-.152-.013-.223-.013zm1.55.9c.195.015.398.022.602.022a9.665 9.665 0 0 0 2.441-.32l-.067.015a9.714 9.714 0 0 0 2.332-.916l-.05.025v8.582c-.69.41-1.487.744-2.332.96l-.064.014a8.984 8.984 0 0 1-2.255.29h-.057a6.95 6.95 0 0 1-1.705-.212l.048.01V9.943c.132.031.269.059.407.082.227.038.467.066.701.084zm4.368.067-.311.105c-.286.096-.575.182-.866.259-.775.207-1.666.328-2.584.332h-.002c-.203 0-.39-.006-.57-.017l-.248-.016v7.008l.213.018c.198.018.402.026.607.026a8.259 8.259 0 0 0 2.095-.277l-.058.013a8.464 8.464 0 0 0 1.643-.595l-.051.022.133-.064v-6.815zM10.996 21.296a.457.457 0 0 0-.33-.14h-.017.001-.007a.508.508 0 0 0-.196.039l.003-.001a.452.452 0 0 0-.255.256l-.001.003a.494.494 0 0 0-.036.193v1.167a.545.545 0 0 0 .046.239c.028.06.067.113.117.157a.402.402 0 0 0 .16.083.646.646 0 0 0 .174.024.493.493 0 0 0 .483-.492v-.13h-.306v.111a.272.272 0 0 1-.019.099l.001-.002a.178.178 0 0 1-.044.066.216.216 0 0 1-.128.045l-.018.001a.156.156 0 0 1-.125-.063.27.27 0 0 1-.041-.145v-.012.001-1.089a.363.363 0 0 1 .038-.174.156.156 0 0 1 .15-.071h-.001.006c.053 0 .101.026.13.066a.243.243 0 0 1 .051.15V21.785h.302v-.124a.547.547 0 0 0-.039-.203l.001.004a.494.494 0 0 0-.102-.165zm1.813-.013a.54.54 0 0 0-.347-.129.514.514 0 0 0-.182.033.48.48 0 0 0-.278.256l-.001.003a.547.547 0 0 0-.045.226v1.119a.53.53 0 0 0 .045.229c.028.06.068.114.118.157a.514.514 0 0 0 .343.131c.133 0 .255-.05.348-.132h-.001a.47.47 0 0 0 .115-.157.56.56 0 0 0 .045-.229V21.66a.542.542 0 0 0-.046-.22l.001.003a.491.491 0 0 0-.115-.163zm-.143 1.509.001.017a.205.205 0 0 1-.061.145.222.222 0 0 1-.288-.001.198.198 0 0 1-.061-.144l.001-.019v.001-1.12l-.001-.017c0-.057.024-.108.061-.145a.222.222 0 0 1 .288.001.2.2 0 0 1 .061.144l-.001.018v-.001 1.12zm2.524.5v-2.12h-.293l-.386 1.122h-.005l-.389-1.122h-.29v2.119h.303v-1.289h.006l.296.911h.151l.299-.911h.006v1.289h.303zm1.72-1.971a.427.427 0 0 0-.171-.116.657.657 0 0 0-.208-.033h-.461v2.12h.302v-.828h.155a.563.563 0 0 0 .273-.058.452.452 0 0 0 .165-.16l.001-.002a.505.505 0 0 0 .069-.185c.01-.067.016-.144.016-.222v-.02.001a1.186 1.186 0 0 0-.03-.303.455.455 0 0 0-.111-.195zm-.156.646a.262.262 0 0 1-.029.112l.001-.002a.167.167 0 0 1-.077.074h-.001a.307.307 0 0 1-.127.027h-.016.001-.138v-.721H16.539c.044 0 .086.01.124.028l-.002-.001a.168.168 0 0 1 .07.077v.001a.285.285 0 0 1 .026.118v.141c0 .049.003.1 0 .146h-.003zm1.587-.795h-.248l-.467 2.12h.302l.089-.455h.412l.089.455h.302l-.478-2.12zm-.279 1.376.149-.768h.006l.148.768h-.302zm2.23-.099h-.006l-.456-1.277h-.29v2.12h.302v-1.275h.006l.462 1.274h.284v-2.119h-.302v1.277zm1.846-1.277-.243.843h-.006l-.243-.843h-.319l.415 1.224v.896h.302v-.896l.415-1.224h-.32zm-11.984 2.719h.146v.408h.099v-.409h.145v-.084h-.389v.084zm1.224-.084-.191.492h.105l.041-.112h.196l.042.112h.108l-.196-.492h-.105zm-.016.297.067-.182.067.182h-.134zm1.225.014h.114v.063a.19.19 0 0 1-.117.042h-.007a.122.122 0 0 1-.097-.047.203.203 0 0 1-.037-.117v-.012.001c0-.11.047-.164.142-.164l.011-.001c.049 0 .089.033.101.078v.001l.097-.019c-.021-.096-.09-.145-.209-.145h-.007a.245.245 0 0 0-.166.064.24.24 0 0 0-.07.19v-.001.012c0 .066.024.127.064.174a.237.237 0 0 0 .172.073l.016-.001h-.001.008c.078 0 .148-.03.201-.079v-.194h-.213v.083zm1.235-.311h-.1v.492h.345v-.084h-.245v-.409zm1.045 0h-.1v.492h.1v-.492zm1.021.328-.202-.329h-.096v.492h.092v-.322l.198.322h.099v-.492h-.091v.329zm.923-.053h.245v-.084h-.245v-.108h.264v-.084h-.363v.492h.374v-.084h-.274v-.133zm2.239-.081h-.194v-.194h-.098v.492h.098v-.215h.194v.215h.099v-.492h-.099v.194zm.928.081h.246v-.084h-.246v-.108h.265v-.084h-.363v.492h.373v-.084h-.274v-.133zm1.26 0c.086-.014.129-.059.129-.137l.001-.014a.119.119 0 0 0-.049-.096.268.268 0 0 0-.125-.03l-.02.001h.001-.209v.492h.099v-.206h.027c.019 0 .038.004.054.012h-.001a.11.11 0 0 1 .035.036l.107.156h.118l-.06-.096a.338.338 0 0 0-.108-.117l-.001-.001zm-.1-.068h-.073v-.123h.078l.021-.001a.27.27 0 0 1 .081.013l-.002-.001a.065.065 0 0 1-.005.1.27.27 0 0 1-.082.012l-.019-.001h.001zm1.05.068h.245v-.084h-.245v-.108h.265v-.084h-.364v.492h.374v-.084h-.274v-.133z" style="fill:var(--color3, #8e8f99)"/></symbol><symbol id="icon-client3" viewBox="0 0 32 32"><path fill="#8e8f99" d="M11.326 22.53c.005 0 .01.001.014.003s.009.004.012.007l.068.064a.566.566 0 0 1-.187.12l-.004.001a.73.73 0 0 1-.271.043h-.014a.743.743 0 0 1-.246-.042l.005.002a.535.535 0 0 1-.315-.289l-.001-.003a.58.58 0 0 1-.043-.221V22.2c0-.08.017-.156.048-.224l-.001.003a.523.523 0 0 1 .132-.177.604.604 0 0 1 .199-.114l.004-.001a.79.79 0 0 1 .254-.041h.009a.72.72 0 0 1 .244.037c.067.025.129.06.183.102l-.057.068a.053.053 0 0 1-.014.012.046.046 0 0 1-.02.005h-.003a.053.053 0 0 1-.025-.008l-.031-.018-.042-.023a.49.49 0 0 0-.131-.041h-.003a.541.541 0 0 0-.093-.007h-.016a.547.547 0 0 0-.186.032l.004-.001a.401.401 0 0 0-.244.223.443.443 0 0 0-.035.174V22.214c0 .063.013.124.036.179l-.001-.003a.39.39 0 0 0 .233.219l.003.001c.055.02.115.03.175.029a.717.717 0 0 0 .104-.006.422.422 0 0 0 .225-.094l-.001.001a.06.06 0 0 1 .032-.012zm1.962-.321a.538.538 0 0 1-.173.401h-.001a.596.596 0 0 1-.201.115.853.853 0 0 1-.522-.001l.006.002a.605.605 0 0 1-.201-.116l.001.001a.514.514 0 0 1-.128-.174l-.001-.003a.57.57 0 0 1 .001-.456l-.001.004a.541.541 0 0 1 .129-.178.61.61 0 0 1 .2-.111.827.827 0 0 1 .516 0 .592.592 0 0 1 .2.115.52.52 0 0 1 .174.388v.014-.001zm-.178 0a.457.457 0 0 0-.032-.182.372.372 0 0 0-.232-.22l-.003-.001a.593.593 0 0 0-.38.001l.004-.001a.4.4 0 0 0-.144.086.36.36 0 0 0-.091.133l-.001.002a.527.527 0 0 0 0 .363.369.369 0 0 0 .236.221.616.616 0 0 0 .375 0 .37.37 0 0 0 .234-.221.454.454 0 0 0 .032-.182zm1.516.191.018.041.02-.041.022-.04.434-.674c.009-.012.016-.019.025-.022s.019-.004.029-.004h.135v1.096h-.152v-.84l-.001-.019.001-.02v.001l-.437.683a.067.067 0 0 1-.025.025.075.075 0 0 1-.037.009H14.631a.078.078 0 0 1-.037-.009.064.064 0 0 1-.025-.024l-.449-.688v.88h-.147V21.66h.133c.011 0 .021.001.031.004h-.001c.01.004.019.011.024.021l.443.675a.216.216 0 0 1 .022.039zm1.634-.055v.41h-.17V21.66h.378a.836.836 0 0 1 .212.024.418.418 0 0 1 .15.068.281.281 0 0 1 .084.106l.001.002c.02.045.03.092.029.14v.005c0 .1-.048.189-.122.244l-.001.001a.443.443 0 0 1-.148.072l-.003.001a.736.736 0 0 1-.204.025l-.206-.003zm0-.117h.206a.488.488 0 0 0 .132-.017.289.289 0 0 0 .096-.048l-.001.001a.206.206 0 0 0 .078-.162V21.988a.176.176 0 0 0-.018-.079v.001a.196.196 0 0 0-.059-.074.372.372 0 0 0-.202-.06l-.028.001h.001-.206v.451zm2.283.529h-.136a.068.068 0 0 1-.035-.01.067.067 0 0 1-.022-.025l-.115-.265h-.58l-.12.265a.064.064 0 0 1-.057.035h-.136l.51-1.096h.177l.516 1.096zm-.841-.407h.479l-.202-.446a.589.589 0 0 1-.037-.098l-.001-.005-.019.057-.018.046-.201.446zm1.575-.684a.07.07 0 0 1 .025.02l.743.826v-.851h.152v1.096H20.109a.087.087 0 0 1-.032-.006h.001a.07.07 0 0 1-.027-.021l-.742-.826.001.019-.001.02v-.001.815h-.152v-1.096h.09c.01 0 .021.001.031.005zm2.172.655v.435h-.17v-.435l-.47-.66h.156c.012 0 .023.003.033.009a.092.092 0 0 1 .023.025l.294.426c.02.028.038.06.051.094l.001.003.022-.047a.36.36 0 0 1 .029-.05l.29-.429a.097.097 0 0 1 .022-.023.055.055 0 0 1 .034-.011h.157l-.471.663zm-6.907-2.5c.074.008.149.014.224.02 1.146-.438 2.115-1.155 2.787-2.061s1.016-1.961.99-3.034l-1.263-1.079c.257 1.142.137 2.322-.347 3.409s-1.312 2.037-2.391 2.745z" style="fill:var(--color3, #8e8f99)"/><path fill="#8e8f99" d="m14.091 19.77.034.006c1.154-.705 2.034-1.69 2.526-2.827s.573-2.374.233-3.55l-1.799-1.537c.728 1.263 1.021 2.677.845 4.077s-.814 2.729-1.838 3.831zm6.101-3.757c-.306 1.178-1.048 2.241-2.117 3.031a6.68 6.68 0 0 1-.967.599l-.038.018c.87-.218 1.67-.605 2.338-1.129s1.186-1.173 1.514-1.895l-.729-.623z" style="fill:var(--color3, #8e8f99)"/><path fill="#8e8f99" d="m19.906 15.839-1.039-.887c-.02 1.012-.357 2.001-.975 2.864s-1.496 1.569-2.542 2.044h.005c.233 0 .466-.012.697-.035.977-.341 1.841-.883 2.513-1.578s1.133-1.522 1.34-2.406zm-5.664-4.625-1.239-1.06c-1.108.366-2.061 1.009-2.734 1.845s-1.035 1.826-1.038 2.841c.004 1.121.446 2.209 1.255 3.092s1.94 1.509 3.213 1.781c1.137-1.183 1.802-2.645 1.9-4.174s-.378-3.043-1.357-4.325zm8.527 4.462c-.005-1.33-.625-2.605-1.726-3.546s-2.593-1.471-4.15-1.475h-.014c-.747 0-1.466.122-2.138.348l.047-.014 7.587 6.482a4.255 4.255 0 0 0 .392-1.797z" style="fill:var(--color3, #8e8f99)"/></symbol><symbol id="icon-client4" viewBox="0 0 32 32"><path fill="#8e8f99" d="M7.409 14.006h-.001c-.734 0-1.329.537-1.329 1.198v.001c0 .662.595 1.198 1.329 1.198h.001c.734 0 1.329-.536 1.329-1.198v-.001c0-.662-.595-1.198-1.329-1.198zm9.81-.384c-.002-.919-.408-1.8-1.129-2.45s-1.698-1.016-2.718-1.018c-1.02.002-1.997.368-2.718 1.018s-1.127 1.531-1.129 2.451v5.069s7.693-.772 7.694-5.068v-.001zM3.385 20.355c.002.64.284 1.253.786 1.705s1.182.707 1.891.709c.709-.002 1.389-.257 1.89-.709s.784-1.065.786-1.705v-3.526s-5.353.538-5.353 3.526zm2.676.632a.766.766 0 0 1-.39-.106.653.653 0 0 1-.256-.28l-.002-.004a.562.562 0 0 1-.039-.369l-.001.004c.03-.13.098-.24.191-.323l.001-.001a.726.726 0 0 1 .355-.172l.004-.001c.136-.025.277-.012.405.036s.238.129.314.233a.589.589 0 0 1-.087.8.715.715 0 0 1-.223.136l-.005.002a.747.747 0 0 1-.268.048h-.001v-.002zm4.896-1.136v1.313h-.27v-1.313h.27zm.523.56v.211h-.597v-.211h.597zm.062-.56v.212h-.659v-.212h.66zm1.236.625v.062c0 .1-.014.19-.041.269a.6.6 0 0 1-.115.204l.001-.001a.489.489 0 0 1-.177.127.547.547 0 0 1-.218.044h-.009a.573.573 0 0 1-.226-.044.492.492 0 0 1-.176-.127.59.59 0 0 1-.115-.199l-.001-.004a.81.81 0 0 1-.041-.257v-.013.001-.062c0-.1.014-.19.041-.269a.587.587 0 0 1 .115-.203l-.001.001a.509.509 0 0 1 .403-.172c.083 0 .158.015.226.044s.127.072.177.128c.05.056.088.123.115.203a.794.794 0 0 1 .042.268zm-.274.062v-.064a.777.777 0 0 0-.019-.184.399.399 0 0 0-.057-.135l.001.001a.247.247 0 0 0-.089-.081l-.001-.001a.261.261 0 0 0-.116-.028h-.005a.246.246 0 0 0-.211.108l-.001.001a.404.404 0 0 0-.055.131l-.001.003a.774.774 0 0 0-.019.172v.012-.001.064c0 .069.006.13.019.184s.031.098.056.134c.025.036.055.063.09.082s.076.028.122.028a.255.255 0 0 0 .122-.028.249.249 0 0 0 .089-.081l.001-.001c.024-.037.042-.082.055-.134s.019-.112.019-.173v-.012.001zm1.151.282v-.003a.174.174 0 0 0-.011-.061v.001a.118.118 0 0 0-.038-.052.332.332 0 0 0-.076-.047l-.002-.001a1.061 1.061 0 0 0-.123-.047l-.008-.002a1.584 1.584 0 0 1-.18-.069l.01.004a.66.66 0 0 1-.142-.085l.002.001a.357.357 0 0 1-.094-.111l-.001-.002a.301.301 0 0 1-.035-.142v-.011c0-.053.013-.103.037-.146l-.001.002c.024-.045.058-.084.101-.115s.094-.058.153-.075a.715.715 0 0 1 .196-.026c.097 0 .181.018.253.052s.128.083.168.143c.04.061.06.13.06.208h-.269v-.005a.2.2 0 0 0-.025-.097l.001.001a.163.163 0 0 0-.071-.069h-.001a.255.255 0 0 0-.111-.025h-.019a.288.288 0 0 0-.11.022l.002-.001a.162.162 0 0 0-.07.056v.001a.142.142 0 0 0-.023.077v.003c0 .022.005.042.016.06.014.02.031.037.05.05h.001c.022.016.049.03.082.044s.07.027.113.041c.072.022.134.046.189.073s.1.057.137.091c.037.034.064.072.083.114s.028.091.028.145v.013a.313.313 0 0 1-.129.254l-.001.001c-.042.031-.092.055-.15.071a.734.734 0 0 1-.388-.001.567.567 0 0 1-.174-.08l.002.001a.388.388 0 0 1-.121-.131l-.001-.002a.379.379 0 0 1-.046-.192h.271c0 .041.006.075.019.104s.03.05.053.068c.024.017.051.03.082.038h.002a.44.44 0 0 0 .106.012h.01a.272.272 0 0 0 .107-.021l-.002.001a.143.143 0 0 0 .09-.133v-.002zm1.042-.969v1.313h-.27v-1.313h.27zm.404 0v.212H14.03v-.212h1.071zm1.034 1.101v.211h-.698v-.211h.698zm-.61-1.101v1.313h-.271v-1.313h.271zm.519.534v.206h-.608v-.206h.608zm.09-.534v.212h-.698v-.212h.698zm.159 0h.489c.101 0 .187.015.259.045s.129.075.168.134.058.131.058.217a.36.36 0 0 1-.135.306l-.001.001a.505.505 0 0 1-.147.078l-.004.001-.086.045h-.426l-.002-.211h.325c.04 0 .077-.009.111-.026l-.001.001a.163.163 0 0 0 .07-.07v-.001a.217.217 0 0 0 .024-.1v-.011a.24.24 0 0 0-.024-.104l.001.001a.158.158 0 0 0-.07-.07h-.001a.255.255 0 0 0-.111-.025h-.228v1.101h-.27V19.85zm.734 1.312-.299-.585.286-.002.303.574v.012h-.289zm1.42-.467h-.334v-.211H18.458a.268.268 0 0 0 .117-.026l-.002.001a.168.168 0 0 0 .071-.071v-.001a.26.26 0 0 0-.001-.214l.001.002a.185.185 0 0 0-.07-.081h-.001a.233.233 0 0 0-.116-.031h-.251v1.101h-.27v-1.313h.511c.103 0 .191.018.265.056s.13.087.169.152a.423.423 0 0 1 .058.222.373.373 0 0 1-.227.363.63.63 0 0 1-.265.05zm1.559.256v.211h-.698v-.211h.698zm-.61-1.101v1.313h-.271v-1.313h.271zm.519.534v.206h-.607v-.206h.608zm.09-.534v.212h-.698v-.212h.698zm.764 0v1.313h-.27v-1.313h.27zm.404 0v.212h-1.071v-.212h1.071zm1.034 1.101v.211h-.698v-.211h.698zm-.61-1.101v1.313h-.27v-1.313h.27zm.519.534v.206h-.607v-.206h.607zm.09-.534v.212h-.698v-.212h.698zm.159 0h.489c.101 0 .187.015.259.045s.129.075.168.134a.384.384 0 0 1 .058.217.36.36 0 0 1-.135.306l-.001.001a.505.505 0 0 1-.147.078l-.004.001-.086.045h-.426l-.002-.211h.326c.04 0 .077-.009.111-.026l-.001.001a.169.169 0 0 0 .07-.07v-.001a.209.209 0 0 0 .025-.1V20.262a.245.245 0 0 0-.024-.105l.001.001a.158.158 0 0 0-.07-.07h-.001a.255.255 0 0 0-.111-.025h-.228v1.101h-.27v-1.313zm.734 1.312-.299-.585.286-.002.303.574v.012H23.1zm1.132-.343v-.002a.16.16 0 0 0-.012-.062v.001a.118.118 0 0 0-.038-.052.332.332 0 0 0-.076-.047l-.002-.001a1.061 1.061 0 0 0-.123-.047l-.008-.002a1.584 1.584 0 0 1-.18-.069l.01.004a.66.66 0 0 1-.142-.085l.002.001a.357.357 0 0 1-.094-.111l-.001-.002a.301.301 0 0 1-.035-.142v-.011c0-.053.013-.103.037-.146l-.001.002c.024-.045.058-.084.101-.115s.094-.058.153-.075a.715.715 0 0 1 .196-.026c.097 0 .181.018.253.052s.128.083.168.143c.04.061.06.13.06.208h-.269v-.005a.2.2 0 0 0-.025-.097l.001.001a.163.163 0 0 0-.071-.069h-.001a.255.255 0 0 0-.111-.025h-.019a.288.288 0 0 0-.11.022l.002-.001a.162.162 0 0 0-.07.056v.001a.137.137 0 0 0-.023.077v.002c0 .022.005.042.016.06.014.02.031.037.05.05h.001c.022.016.049.03.082.044s.07.027.113.041c.072.022.134.046.189.073s.1.057.137.091c.037.034.064.072.083.114s.028.091.028.145v.013a.313.313 0 0 1-.129.254l-.001.001c-.042.031-.092.055-.15.071a.732.732 0 0 1-.387-.001.567.567 0 0 1-.174-.08l.002.001a.401.401 0 0 1-.122-.131l-.001-.002a.379.379 0 0 1-.046-.192h.271c0 .041.006.075.019.104s.03.05.053.068c.024.017.051.03.082.038h.002a.44.44 0 0 0 .106.012h.01a.272.272 0 0 0 .107-.021l-.002.001a.143.143 0 0 0 .09-.133v-.002z" style="fill:var(--color3, #8e8f99)"/></symbol><symbol id="icon-client5" viewBox="0 0 32 32"><path fill="#8e8f99" d="M8.244 21.038c.075.084.116.19.114.298.004.07-.01.141-.041.206s-.077.123-.136.17a.818.818 0 0 1-.514.137h.003-.9v-1.887h.882a.808.808 0 0 1 .492.127l-.003-.002c.057.043.102.097.132.158s.043.128.039.195a.409.409 0 0 1-.102.288.483.483 0 0 1-.265.147h-.003c.119.02.227.077.304.161zm-1.056-.285h.377a.382.382 0 0 0 .239-.062.234.234 0 0 0 .064-.082l.001-.001a.197.197 0 0 0 .017-.082l-.001-.02v.001l.001-.016a.21.21 0 0 0-.018-.086l.001.001a.239.239 0 0 0-.062-.084.395.395 0 0 0-.216-.065l-.032.001h.001-.371v.495zm.653.724a.247.247 0 0 0 .069-.085l.001-.001a.21.21 0 0 0 .02-.091l-.001-.015v.001-.013a.21.21 0 0 0-.022-.094l.001.001a.25.25 0 0 0-.07-.087h-.001a.419.419 0 0 0-.231-.069l-.026.001h.001-.395v.519h.4a.422.422 0 0 0 .253-.066zm2.205.372-.49-.738h-.185v.737h-.422v-1.887h.798a.844.844 0 0 1 .559.162l-.002-.002a.56.56 0 0 1 .06.781.663.663 0 0 1-.381.192l.522.754h-.458zm-.675-.995h.345c.24 0 .359-.095.359-.286v-.015a.251.251 0 0 0-.02-.1l.001.002a.297.297 0 0 0-.068-.098.397.397 0 0 0-.273-.076h.002-.349l.004.574zm2.981.615h-.841l-.149.38h-.442l.772-1.866h.478l.769 1.866h-.442l-.145-.38zm-.113-.285-.307-.797-.307.796h.614zm2.999.665h-.418l-.939-1.283v1.283h-.418v-1.887h.418l.939 1.29v-1.29h.419v1.887zm2.39-.452a.877.877 0 0 1-.373.331l-.005.002a1.345 1.345 0 0 1-.589.119h-.746v-1.887h.781c.2 0 .391.043.563.12l-.009-.003c.16.073.292.188.379.329a1 1 0 0 1-.003.995l.003-.005zm-.479-.045a.65.65 0 0 0 .185-.45.65.65 0 0 0-.185-.45.775.775 0 0 0-.526-.16h.002-.291v1.222h.291a.78.78 0 0 0 .527-.161l-.002.001zM12.614 9.467s5.405 1.837 5.29 4.495v4.497s-5.401-1.838-5.289-4.497l-.002-4.495zm10.106 7.939a7.91 7.91 0 0 1 3.434-1.139v-1.408c-1.42.493-2.625 1.386-3.434 2.547z" style="fill:var(--color3, #8e8f99)"/><path fill="#8e8f99" d="M22.106 17.83c.835-1.515 2.284-2.683 4.047-3.266v-4.056s-7.698 2.617-7.535 6.403v6.402s.343-.117.883-.337c0-.205 0-.411.025-.618.159-1.758 1.087-3.386 2.58-4.528z" style="fill:var(--color3, #8e8f99)"/><path fill="#8e8f99" d="M21.374 20.208c.045-.484.141-.929.282-1.353l-.012.043c-.93.986-1.493 2.209-1.61 3.498a5.55 5.55 0 0 0-.02.369 21.665 21.665 0 0 0 1.608-.763l-.128.061a5.834 5.834 0 0 1-.118-1.877l-.002.024zm.306.023a5.686 5.686 0 0 0 .102 1.716l-.007-.037c2.103-1.133 4.466-2.883 4.375-4.999v-.185c-1.502.152-2.908.743-4.002 1.683a5.636 5.636 0 0 0-.467 1.799l-.002.023z" style="fill:var(--color3, #8e8f99)"/></symbol><symbol id="icon-client6" viewBox="0 0 32 32"><path fill="#8e8f99" d="M16.471 15.829a.902.902 0 0 1-.189-.554l.002-.061v.003-.889c0-.272.062-.479.186-.621s.336-.212.637-.212c.283 0 .484.06.602.181a.74.74 0 0 1 .178.531v.209h-.506v-.212a1.03 1.03 0 0 0-.015-.207.204.204 0 0 0-.072-.123.292.292 0 0 0-.161-.049l-.023.001h.001l-.022-.001a.306.306 0 0 0-.172.052l.001-.001a.231.231 0 0 0-.083.134v.002a.991.991 0 0 0-.02.203v.018-.001 1.078a.552.552 0 0 0 .066.306l-.001-.003c.026.033.06.058.099.073l.002.001a.277.277 0 0 0 .131.017.272.272 0 0 0 .179-.049.218.218 0 0 0 .075-.13v-.001c.012-.071.017-.144.016-.216v-.219h.506v.2a.813.813 0 0 1-.176.56l.001-.002c-.116.132-.314.198-.605.198s-.511-.07-.636-.217zm2.106.009c-.128-.138-.192-.34-.192-.607v-.935c0-.264.064-.464.192-.599s.342-.203.641-.202c.298 0 .51.068.638.202s.193.335.193.599v.935c0 .264-.065.466-.195.606s-.342.209-.636.209-.512-.07-.641-.208zm.877-.224a.52.52 0 0 0 .061-.277v-1.145l.001-.03a.499.499 0 0 0-.062-.243l.001.003a.24.24 0 0 0-.101-.074l-.002-.001a.281.281 0 0 0-.099-.018l-.036.002h.001a.289.289 0 0 0-.136.017l.002-.001a.245.245 0 0 0-.104.074.5.5 0 0 0-.061.271v1.15a.511.511 0 0 0 .061.277.34.34 0 0 0 .237.093.36.36 0 0 0 .132-.025l-.002.001a.323.323 0 0 0 .107-.069v-.006zm1.204-2.092h.545l.41 1.725.419-1.725h.53l.054 2.489h-.392l-.042-1.73-.404 1.73h-.314l-.419-1.736-.039 1.736h-.396l.049-2.489zm2.568 0h.849c.489 0 .733.236.733.707 0 .451-.258.677-.772.676h-.289v1.106h-.524l.003-2.49zm.724 1.064a.4.4 0 0 0 .288-.078.397.397 0 0 0 .078-.238l-.002-.045v.002l.001-.029a.759.759 0 0 0-.027-.203l.001.005a.184.184 0 0 0-.039-.068.23.23 0 0 0-.065-.05l-.001-.001a.525.525 0 0 0-.206-.04l-.03.001h.001-.203v.744h.203zm1.613-1.064h.562l.577 2.489h-.488l-.114-.574h-.502l-.118.574h-.495l.577-2.49zm.481 1.627-.196-1.045-.196 1.045h.392zm1.125-1.627h.367l.702 1.42v-1.42h.435v2.489h-.349l-.706-1.482v1.482h-.449l.001-2.489zm2.521 1.54-.583-1.537h.491l.356.987.334-.987h.481l-.576 1.537v.949h-.503v-.949zM17.279 17.1v.13h-.428v1.011h-.179V17.23h-.43v-.13h1.036zm1.34 1.141H18.477a.06.06 0 0 1-.035-.011.058.058 0 0 1-.023-.026l-.124-.271h-.593l-.124.271a.087.087 0 0 1-.018.031.061.061 0 0 1-.036.011H17.382l.524-1.142h.182l.53 1.137zm-.867-.423h.494l-.209-.465a.845.845 0 0 1-.038-.102l-.001-.006-.02.061-.019.048-.207.464zm1.77.311a.491.491 0 0 0 .182-.014.544.544 0 0 0 .08-.022l-.005.001c.023-.008.046-.018.07-.028v-.257h-.213l-.013-.002a.054.054 0 0 1-.013-.007.034.034 0 0 1-.008-.009.02.02 0 0 1-.003-.01v-.089h.406v.438a.767.767 0 0 1-.215.092l-.006.001a.97.97 0 0 1-.131.023 1.458 1.458 0 0 1-.153.007h-.006a.826.826 0 0 1-.264-.044l.006.002a.63.63 0 0 1-.21-.12l.001.001a.557.557 0 0 1-.134-.178l-.001-.003a.565.565 0 0 1-.048-.229v-.015c0-.084.017-.163.049-.235l-.001.004c.03-.068.076-.129.135-.181s.131-.092.209-.118a1.014 1.014 0 0 1 .427-.032.756.756 0 0 1 .23.074.651.651 0 0 1 .091.06l-.05.071a.035.035 0 0 1-.017.015.048.048 0 0 1-.024.006.074.074 0 0 1-.033-.009.528.528 0 0 1-.054-.029l.003.002a.52.52 0 0 0-.067-.03l-.003-.001a.678.678 0 0 0-.092-.025l-.004-.001a.815.815 0 0 0-.126-.01H19.504a.63.63 0 0 0-.2.033l.004-.001a.446.446 0 0 0-.154.091.39.39 0 0 0-.098.142.53.53 0 0 0 .001.384l-.001-.004a.442.442 0 0 0 .258.234c.067.02.137.027.207.022zm1.67-.018h.572v.13h-.747v-1.142h.179l-.004 1.011zm1.167.13h-.179v-1.142h.179v1.142zm.666-1.136c.011.005.02.012.028.021l.766.861-.001-.02.001-.021v.001-.851h.156v1.146h-.096a.08.08 0 0 1-.034-.007h.001a.12.12 0 0 1-.028-.021l-.765-.86v.888h-.15V17.1h.093c.01 0 .02.002.03.005zm2.269-.005v.126h-.635v.377h.514v.121h-.514v.39h.635v.126h-.819v-1.139h.819zM6.522 10.049l7.954 1.949v6.829l-7.954-1.948v-6.831zm-.511-.582v7.744l8.974 2.199v-7.743l-8.974-2.2z" style="fill:var(--color3, #8e8f99)"/><path fill="#8e8f99" d="m10.821 23.005-8.975-2.201v-7.743l8.975 2.2v7.745z" style="fill:var(--color3, #8e8f99)"/><path fill="#8e8f99" d="m6.16 9.961 7.851 1.924-3.338 2.882-7.852-1.926 3.34-2.881zm-.149-.494-4.165 3.594 8.975 2.2 4.164-3.594-8.974-2.2zm5.315 13.102 3.659-3.158-3.659-.898v4.056z" style="fill:var(--color3, #8e8f99)"/></symbol><symbol id="icon-clock" viewBox="0 0 32 32"><path fill="#2e2f42" d="M31.297 15.301C31.295 6.849 24.442-.002 15.989 0S.686 6.855.688 15.308C.69 22.096 5.11 27.851 11.229 29.853l.108.031a.67.67 0 0 0 .529-.064.642.642 0 0 0 .284-.357l3.865-12.25a1.913 1.913 0 1 0-.851-3.63l.011-.005-5.106-5.107a.637.637 0 1 0-.902.902l5.104 5.109a1.873 1.873 0 0 0 .532 2.306l.004.003-3.683 11.673C3.846 25.783.119 17.71 2.801 10.432 5.482 3.155 13.556-.573 20.833 2.109s11.004 10.755 8.323 18.032c-1.345 3.581-4.004 6.406-7.374 7.938l-.088.036-.398-1.875a.638.638 0 0 0-1.049-.343l.001-.001-3.837 3.425a.639.639 0 0 0 .227 1.084l.005.001 4.899 1.564a.637.637 0 0 0 .818-.743l.001.004-.391-1.839c5.528-2.374 9.329-7.772 9.329-14.057v-.034.002zm-15.305-.637a.638.638 0 0 1 0 1.276.638.638 0 0 1 0-1.276zm2.101 14.863 2.184-1.948.603 2.84-2.787-.892z" style="fill:var(--color1, #2e2f42)"/><path fill="#4d5ae5" d="M15.354 3.185V4.46a.638.638 0 1 0 1.275 0V3.185a.639.639 0 0 0-1.274-.002v.001zM3.876 14.664a.637.637 0 1 0 .001 1.274h1.275a.638.638 0 1 0 0-1.274H3.877zm24.232 1.275a.637.637 0 1 0 0-1.274h-1.275a.639.639 0 0 0-.002 1.274H28.107z" style="fill:var(--color2, #4d5ae5)"/></symbol><symbol id="icon-diagram" viewBox="0 0 32 32"><path fill="#4d5ae5" d="M14.925 14.965h1.066v4.797h-1.066v-4.797zm4.265 2.132h1.066v2.665H19.19v-2.665zm-8.529 1.599h1.066v1.066h-1.066v-1.066zm-3.198-.533h1.066v1.599H7.463v-1.599z" style="fill:var(--color2, #4d5ae5)"/><path fill="#2e2f42" d="M1.599 28.291h25.587a1.6 1.6 0 0 0 1.599-1.599v-2.133a1.6 1.6 0 0 0-1.599-1.599h-.534V9.667l3.028-2.868a1.608 1.608 0 1 0-.742-.753l-.004-.01-2.282 2.163v-1.23a1.6 1.6 0 0 0-1.599-1.599H3.73a1.6 1.6 0 0 0-1.599 1.599V22.961h-.533A1.6 1.6 0 0 0-.001 24.56v2.134a1.6 1.6 0 0 0 1.599 1.599zM30.384 4.837a.533.533 0 0 1 0 1.066.533.533 0 0 1 0-1.066zM3.199 6.969c0-.295.239-.534.533-.534h21.322c.294 0 .533.239.533.534v2.238l-1.066 1.013V8.035a.532.532 0 0 0-.533-.533H4.798a.533.533 0 0 0-.533.533v13.326c0 .295.239.534.533.534h19.19a.534.534 0 0 0 .533-.534v-9.674l1.066-1.01V22.96H3.199V6.969zm4.797 6.93h-.005a1.6 1.6 0 1 0 1.112 2.748l1.853.93a.532.532 0 0 0 .636-.123l3.938-4.431 3.872 2.902a.532.532 0 0 0 .686-.04l3.365-3.188v8.131H5.33V8.568h18.124v2.66L19.682 14.8l-3.905-2.928a.531.531 0 0 0-.717.072v.001l-3.993 4.493-1.493-.746c.011-.064.018-.129.021-.194a1.6 1.6 0 0 0-1.599-1.599zm.533 1.599a.533.533 0 0 1-1.066 0 .533.533 0 0 1 1.066 0zm3.198 8.528h5.331v.533a.533.533 0 0 1-.533.533h-4.264a.533.533 0 0 1-.533-.533v-.533zm-10.661.534c0-.294.239-.533.533-.533h9.062v.533a1.6 1.6 0 0 0 1.599 1.599h4.265a1.6 1.6 0 0 0 1.599-1.599v-.534h9.061c.295 0 .534.238.534.533v2.133a.534.534 0 0 1-.534.533H1.599a.533.533 0 0 1-.533-.533v-2.133z" style="fill:var(--color1, #2e2f42)"/></symbol><symbol id="icon-facebook" viewBox="0 0 32 32"><path fill="#4d5ae5" d="M32 16v.021a15.9 15.9 0 0 1-4.686 11.293A15.9 15.9 0 0 1 16.021 32h-.022H16h-.021a15.9 15.9 0 0 1-11.293-4.686A15.9 15.9 0 0 1 0 16.021v-.022V16v-.02A15.9 15.9 0 0 1 4.686 4.687 15.9 15.9 0 0 1 15.979.001H16h-.001.021a15.9 15.9 0 0 1 11.293 4.686 15.9 15.9 0 0 1 4.686 11.293v.022-.001z" style="fill:var(--color2, #4d5ae5)"/><path fill="#f4f4fd" d="M18.132 11.725H19.3V9.691a14.526 14.526 0 0 0-1.651-.091h-.054.003c-1.685 0-2.838 1.06-2.838 3.008V14.4h-1.859v2.275h1.859V22.4h2.279v-5.724h1.784l.283-2.276h-2.068v-1.567c.001-.658.178-1.108 1.094-1.108z" style="fill:var(--color4, #f4f4fd)"/></symbol><symbol id="icon-facebook2" viewBox="0 0 32 32"><path fill="#f4f4fd" d="M21.329 5.313h2.921V.225C23.746.156 22.013 0 19.994 0c-4.212 0-7.097 2.649-7.097 7.519V12H8.249v5.688h4.648V32h5.699V17.689h4.46l.708-5.688h-5.169V8.082c.001-1.644.444-2.769 2.735-2.769z" style="fill:var(--color4, #f4f4fd)"/></symbol><symbol id="icon-instagram" viewBox="0 0 32 32"><path fill="#4d5ae5" d="M32 16v.021a15.9 15.9 0 0 1-4.686 11.293A15.9 15.9 0 0 1 16.021 32h-.022H16h-.021a15.9 15.9 0 0 1-11.293-4.686A15.9 15.9 0 0 1 0 16.021v-.022V16v-.02A15.9 15.9 0 0 1 4.686 4.687 15.9 15.9 0 0 1 15.979.001H16h-.001.021a15.9 15.9 0 0 1 11.293 4.686 15.9 15.9 0 0 1 4.686 11.293v.022-.001z" style="fill:var(--color2, #4d5ae5)"/><path fill="#f4f4fd" d="M22.387 13.363c-.03-.68-.14-1.148-.298-1.553a3.125 3.125 0 0 0-.739-1.135l-.001-.001a3.157 3.157 0 0 0-1.111-.729l-.022-.007c-.408-.158-.872-.268-1.552-.298-.686-.032-.904-.04-2.641-.04-1.738 0-1.956.008-2.638.038-.68.03-1.147.14-1.552.298a3.125 3.125 0 0 0-1.135.739l-.001.001c-.317.312-.568.69-.73 1.111l-.007.022c-.158.408-.267.872-.298 1.552-.032.686-.04.904-.04 2.641 0 1.738.008 1.956.038 2.638.03.68.14 1.148.298 1.553.162.43.415.815.74 1.135.32.325.708.578 1.133.738.408.158.872.268 1.553.298.682.03.9.038 2.638.038s1.955-.008 2.638-.038c.68-.03 1.148-.14 1.553-.298a3.29 3.29 0 0 0 1.865-1.851l.008-.022c.158-.408.268-.872.298-1.553.03-.682.038-.9.038-2.638s-.002-1.955-.032-2.638zm-1.152 5.226c-.028.626-.133.963-.221 1.188-.22.56-.655.995-1.201 1.211l-.014.005c-.225.087-.565.192-1.187.219-.675.03-.878.038-2.586.038s-1.913-.008-2.586-.038c-.625-.027-.962-.132-1.188-.22a1.986 1.986 0 0 1-.735-.477 1.997 1.997 0 0 1-.473-.721l-.005-.014c-.088-.225-.192-.565-.22-1.187-.03-.675-.038-.878-.038-2.586s.008-1.913.038-2.586c.028-.626.133-.963.22-1.188.102-.278.266-.53.48-.735.208-.212.458-.375.736-.478.224-.088.565-.192 1.187-.22.675-.03.878-.038 2.586-.038 1.71 0 1.912.008 2.586.038.625.028.962.133 1.188.22.277.102.53.266.734.478.213.208.376.458.478.736.088.224.193.565.221 1.187.03.675.037.878.037 2.586s-.007 1.907-.037 2.582z" style="fill:var(--color4, #f4f4fd)"/><path fill="#f4f4fd" d="M16.024 12.713a3.29 3.29 0 0 0-.003 6.576h.004a3.29 3.29 0 0 0 .004-6.576h-.004zm0 5.421a2.134 2.134 0 0 1 0-4.268 2.134 2.134 0 0 1 0 4.268zm4.186-5.551a.768.768 0 0 1-1.536 0 .768.768 0 0 1 1.536 0z" style="fill:var(--color4, #f4f4fd)"/></symbol><symbol id="icon-instagram2" viewBox="0 0 32 32"><path fill="#f4f4fd" d="M31.969 9.408c-.076-1.7-.351-2.869-.744-3.883a7.845 7.845 0 0 0-1.849-2.836l-.001-.001A7.89 7.89 0 0 0 26.597.862l-.054-.018C25.524.451 24.36.173 22.66.1 20.948.02 20.404 0 16.061 0c-4.348 0-4.892.019-6.599.093-1.699.076-2.868.351-3.88.744a7.84 7.84 0 0 0-2.837 1.849l-.001.001A7.89 7.89 0 0 0 .918 5.465L.9 5.519C.507 6.538.231 7.7.156 9.399c-.08 1.715-.1 2.259-.1 6.603 0 4.345.019 4.889.093 6.596.076 1.7.351 2.868.745 3.881a7.93 7.93 0 0 0 1.848 2.838l.001.001a7.867 7.867 0 0 0 2.832 1.844c1.019.393 2.181.668 3.883.744 1.707.075 2.249.093 6.595.093 4.344 0 4.888-.019 6.595-.093 1.7-.076 2.869-.351 3.883-.744a8.231 8.231 0 0 0 4.662-4.627l.019-.055c.395-1.019.669-2.181.744-3.881.075-1.707.093-2.251.093-6.596 0-4.344-.005-4.888-.08-6.595zm-2.882 13.065c-.068 1.563-.331 2.407-.549 2.969a5.342 5.342 0 0 1-3.003 3.025l-.036.013c-.563.22-1.413.481-2.969.551-1.688.075-2.193.093-6.464.093-4.269 0-4.781-.019-6.464-.093-1.563-.069-2.407-.331-2.969-.551a4.945 4.945 0 0 1-1.836-1.192l-.001-.001a4.971 4.971 0 0 1-1.183-1.803l-.011-.034c-.219-.563-.48-1.413-.549-2.969-.075-1.688-.093-2.195-.093-6.464 0-4.271.019-4.783.093-6.464.069-1.563.331-2.407.549-2.969a4.911 4.911 0 0 1 1.2-1.839 4.972 4.972 0 0 1 1.806-1.182l.034-.011c.561-.219 1.412-.48 2.968-.551 1.688-.075 2.195-.093 6.464-.093 4.276 0 4.781.019 6.464.093 1.563.069 2.407.332 2.969.551a4.932 4.932 0 0 1 1.837 1.193c.532.52.937 1.144 1.195 1.839.219.563.48 1.413.549 2.969.075 1.688.093 2.193.093 6.464 0 4.269-.019 4.769-.093 6.457z" style="fill:var(--color4, #f4f4fd)"/><path fill="#f4f4fd" d="M16.059 7.783a8.224 8.224 0 0 0-8.22 8.22 8.222 8.222 0 0 0 8.22 8.221 8.222 8.222 0 0 0 8.221-8.221 8.223 8.223 0 0 0-8.221-8.22zm0 13.553a5.333 5.333 0 0 1 .001-10.666h.001a5.333 5.333 0 0 1-.001 10.666h-.001zM26.524 7.457l.001.051a1.92 1.92 0 0 1-3.84 0l.001-.053v.003a1.92 1.92 0 0 1 3.838-.002v.003z" style="fill:var(--color4, #f4f4fd)"/></symbol><symbol id="icon-linkedin" viewBox="0 0 32 32"><path fill="#4d5ae5" d="M32 16v.021a15.9 15.9 0 0 1-4.686 11.293A15.9 15.9 0 0 1 16.021 32h-.022H16h-.021a15.9 15.9 0 0 1-11.293-4.686A15.9 15.9 0 0 1 0 16.021v-.022V16v-.02A15.9 15.9 0 0 1 4.686 4.687 15.9 15.9 0 0 1 15.979.001H16h-.001.021a15.9 15.9 0 0 1 11.293 4.686 15.9 15.9 0 0 1 4.686 11.293v.022-.001z" style="fill:var(--color2, #4d5ae5)"/><path fill="#f4f4fd" d="M22.397 22.4h.003v-4.696c0-2.296-.494-4.066-3.179-4.066-1.29 0-2.157.709-2.51 1.38h-.038v-1.166h-2.545v8.547h2.651v-4.232c0-1.114.211-2.19 1.59-2.19 1.36 0 1.38 1.271 1.38 2.262v4.16h2.648zM9.811 13.854h2.654V22.4H9.811v-8.546zM11.137 9.6c-.848 0-1.536.688-1.536 1.537s.688 1.552 1.536 1.552c.849 0 1.538-.704 1.538-1.552S11.985 9.6 11.137 9.6z" style="fill:var(--color4, #f4f4fd)"/></symbol><symbol id="icon-linkedin2" viewBox="0 0 32 32"><path fill="#f4f4fd" d="M31.992 32H32V20.263c0-5.741-1.236-10.164-7.948-10.164-3.227 0-5.392 1.771-6.276 3.449h-.093v-2.913h-6.364V32h6.627V21.421c0-2.785.528-5.479 3.977-5.479 3.399 0 3.449 3.179 3.449 5.657v10.4h6.62zM.528 10.636h6.635V32H.528V10.636zM3.843 0A3.845 3.845 0 0 0 0 3.843c0 2.121 1.721 3.879 3.843 3.879s3.843-1.757 3.843-3.879A3.846 3.846 0 0 0 3.843 0z" style="fill:var(--color4, #f4f4fd)"/></symbol><symbol id="icon-twitter" viewBox="0 0 32 32"><path fill="#4d5ae5" d="M32 16v.021a15.9 15.9 0 0 1-4.686 11.293A15.9 15.9 0 0 1 16.021 32h-.022H16h-.021a15.9 15.9 0 0 1-11.293-4.686A15.9 15.9 0 0 1 0 16.021v-.022V16v-.02A15.9 15.9 0 0 1 4.686 4.687 15.9 15.9 0 0 1 15.979.001H16h-.001.021a15.9 15.9 0 0 1 11.293 4.686 15.9 15.9 0 0 1 4.686 11.293v.022-.001z" style="fill:var(--color2, #4d5ae5)"/><path fill="#f4f4fd" d="M22.4 12.031c-.44.197-.95.343-1.485.412l-.027.003a2.62 2.62 0 0 0 1.149-1.432l.005-.018a5.181 5.181 0 0 1-1.63.63l-.034.006a2.624 2.624 0 0 0-4.539 1.794v.001c0 .208.018.408.061.598a7.42 7.42 0 0 1-5.398-2.731l-.011-.014a2.626 2.626 0 0 0 .797 3.501l.009.006a2.576 2.576 0 0 1-1.199-.33l.013.007v.029a2.637 2.637 0 0 0 2.085 2.575l.017.003c-.2.055-.43.086-.668.086h-.022.001-.041c-.161 0-.319-.016-.471-.048l.015.003a2.655 2.655 0 0 0 2.449 1.828h.003a5.238 5.238 0 0 1-3.248 1.119h-.006c-.215 0-.422-.01-.628-.036a7.32 7.32 0 0 0 4.002 1.178h.025-.001c4.829 0 7.469-4 7.469-7.467a6.24 6.24 0 0 0-.01-.339c.52-.375.956-.827 1.303-1.344l.012-.019z" style="fill:var(--color4, #f4f4fd)"/></symbol><symbol id="icon-twitter2" viewBox="0 0 32 32"><path fill="#f4f4fd" d="M32 6.079a13.692 13.692 0 0 1-3.78 1.035 6.562 6.562 0 0 0 2.874-3.579l.013-.046a12.858 12.858 0 0 1-4.076 1.574l-.084.014a6.559 6.559 0 0 0-11.348 4.481v.006c0 .52.044 1.019.152 1.495-5.455-.265-10.28-2.88-13.523-6.861a6.57 6.57 0 0 0 2.016 8.768 6.454 6.454 0 0 1-2.997-.825l.033.017v.072a6.594 6.594 0 0 0 5.213 6.439l.043.008a6.584 6.584 0 0 1-1.72.216l-.104.001c-.403 0-.797-.041-1.176-.119l.037.006c.851 2.597 3.263 4.507 6.131 4.569a13.098 13.098 0 0 1-8.121 2.799H1.57h.001c-.539 0-1.055-.024-1.571-.091 2.826 1.846 6.287 2.944 10.004 2.944h.063-.003c12.072 0 18.672-10 18.672-18.668 0-.289-.011-.569-.024-.848a13.198 13.198 0 0 0 3.258-3.358l.03-.047z" style="fill:var(--color4, #f4f4fd)"/></symbol></defs></svg>